<svg width="390" height="844" viewBox="0 0 390 844" fill="none" xmlns="http://www.w3.org/2000/svg">
  <!-- Background -->
  <rect width="390" height="844" rx="40" fill="#F8FAFC" stroke="#E2E8F0" stroke-width="3"/>

  <!-- Status Bar -->
  <text x="32" y="32" fill="#0F172A" font-family="System-UI, -apple-system, sans-serif" font-size="14" font-weight="600" letter-spacing="-0.2">9:41</text>
  <path d="M328 22H338C339.105 22 340 22.8954 340 24V30C340 31.1046 339.105 32 338 32H328C326.895 32 326 31.1046 326 30V24C326 22.8954 326.895 22 328 22Z" stroke="#0F172A" stroke-width="1.5"/>
  <rect x="328" y="24" width="8" height="6" rx="1" fill="#0F172A"/>

  <!-- Header -->
  <g transform="translate(24, 55)">
    <text x="0" y="22" fill="#1A365D" font-family="'Outfit', 'Inter', sans-serif" font-size="22" font-weight="900" letter-spacing="-0.5">Admin Console</text>
    <rect x="0" y="32" width="168" height="20" rx="6" fill="#ECFDF5" stroke="#10B981" stroke-width="1"/>
    <text x="84" y="45" text-anchor="middle" fill="#059669" font-family="'Inter', sans-serif" font-size="10" font-weight="800">● SYS ACTIVE  Superuser Authority</text>
  </g>

  <!-- Navigation tab indicator (Commissions active) -->
  <g transform="translate(24, 125)">
    <rect width="342" height="42" rx="12" fill="#F1F5F9" stroke="#E2E8F0" stroke-width="1"/>
    
    <!-- Active Commissions Tab pill in Navy -->
    <rect x="228" y="4" width="110" height="34" rx="8" fill="#1A365D"/>
    
    <a href="admin_dashboard.svg" style="cursor: pointer;">
      <text x="58" y="25" text-anchor="middle" fill="#64748B" font-family="'Inter', sans-serif" font-size="12" font-weight="700">Approvals</text>
    </a>
    <a href="admin_canteens.svg" style="cursor: pointer;">
      <text x="171" y="25" text-anchor="middle" fill="#64748B" font-family="'Inter', sans-serif" font-size="12" font-weight="700">Canteens</text>
    </a>
    <text x="284" y="25" text-anchor="middle" fill="#FFFFFF" font-family="'Inter', sans-serif" font-size="12" font-weight="800">Commissions</text>
  </g>

  <!-- Stats Grid Row -->
  <g transform="translate(24, 195)">
    <!-- Box 1: Platform Sales -->
    <rect width="162" height="96" rx="20" fill="#FFFFFF" stroke="#F1F5F9" stroke-width="1.5"/>
    <text x="18" y="30" fill="#64748B" font-family="'Inter', sans-serif" font-size="11" font-weight="800" letter-spacing="0.2">PLATFORM SALES</text>
    <text x="18" y="64" fill="#0F172A" font-family="'Outfit', 'Inter', sans-serif" font-size="24" font-weight="900">₱35,910.00</text>

    <!-- Box 2: Comm Earnings -->
    <g transform="translate(180, 0)">
      <rect width="162" height="96" rx="20" fill="#FFFFFF" stroke="#F1F5F9" stroke-width="1.5"/>
      <text x="18" y="30" fill="#1A365D" font-family="'Inter', sans-serif" font-size="11" font-weight="800" letter-spacing="0.2">COMMISSIONS (10%)</text>
      <text x="18" y="64" fill="#10B981" font-family="'Outfit', 'Inter', sans-serif" font-size="24" font-weight="900">₱3,591.00</text>
    </g>
  </g>

  <!-- Ledger Table Section -->
  <g transform="translate(24, 320)">
    <text x="0" y="0" fill="#1A365D" font-family="'Outfit', 'Inter', sans-serif" font-size="16" font-weight="800" letter-spacing="-0.3">Commission Transaction Ledger</text>
    
    <g transform="translate(0, 16)">
      <rect width="342" height="230" rx="20" fill="#FFFFFF" stroke="#F1F5F9" stroke-width="1.5"/>
      
      <!-- Table Header -->
      <text x="18" y="32" fill="#64748B" font-family="'Inter', sans-serif" font-size="11" font-weight="800" letter-spacing="0.2">STALL NAME</text>
      <text x="190" y="32" fill="#64748B" font-family="'Inter', sans-serif" font-size="11" font-weight="800" letter-spacing="0.2">SALES</text>
      <text x="260" y="32" fill="#64748B" font-family="'Inter', sans-serif" font-size="11" font-weight="800" letter-spacing="0.2">COMMISSION</text>
      <line x1="18" y1="46" x2="324" y2="46" stroke="#F1F5F9" stroke-width="1.5"/>

      <!-- Row 1 -->
      <text x="18" y="74" fill="#0F172A" font-family="'Inter', sans-serif" font-size="13" font-weight="700">Maria's Homestyle Meals</text>
      <text x="190" y="74" fill="#64748B" font-family="'Inter', sans-serif" font-size="13" font-weight="600">₱14,520</text>
      <text x="260" y="74" fill="#1A365D" font-family="'Inter', sans-serif" font-size="13" font-weight="800">₱1,452</text>

      <!-- Row 2 -->
      <text x="18" y="114" fill="#0F172A" font-family="'Inter', sans-serif" font-size="13" font-weight="700">Wok &amp; Roll Express</text>
      <text x="190" y="114" fill="#64748B" font-family="'Inter', sans-serif" font-size="13" font-weight="600">₱12,300</text>
      <text x="260" y="114" fill="#1A365D" font-family="'Inter', sans-serif" font-size="13" font-weight="800">₱1,230</text>

      <!-- Row 3 -->
      <text x="18" y="154" fill="#0F172A" font-family="'Inter', sans-serif" font-size="13" font-weight="700">The Green Fork (Salads)</text>
      <text x="190" y="154" fill="#64748B" font-family="'Inter', sans-serif" font-size="13" font-weight="600">₱9,090</text>
      <text x="260" y="154" fill="#1A365D" font-family="'Inter', sans-serif" font-size="13" font-weight="800">₱909</text>
    </g>
  </g>

  <!-- Bottom Navigation Bar (Commissions active in Navy pill layout) -->
  <g transform="translate(0, 785)">
    <!-- Thin line separator -->
    <line x1="0" y1="0" x2="390" y2="0" stroke="#E2E8F0" stroke-width="1.5"/>

    <!-- Tab 1: Approvals Icon (Inactive) -->
    <a href="admin_dashboard.svg" style="cursor: pointer;">
      <g transform="translate(48, 24)">
        <rect width="20" height="20" rx="4" fill="none" stroke="#64748B" stroke-width="2"/>
        <path d="M6 10L9 13L14 7" stroke="#64748B" stroke-width="2" stroke-linecap="round"/>
      </g>
    </a>

    <!-- Tab 2: Canteens Icon (Inactive) -->
    <a href="admin_canteens.svg" style="cursor: pointer;">
      <g transform="translate(164, 24)">
        <path d="M0 11H16M1 5L3 0H13L15 5V11M2 17V11M14 17V11" stroke="#64748B" stroke-width="2" stroke-linecap="round" stroke-linejoin="round"/>
      </g>
    </a>

    <!-- Tab 3: Commissions (Active Pill Layout) -->
    <g transform="translate(210, 10)">
      <rect width="156" height="56" rx="28" fill="#1A365D"/>
      <!-- Payments icon -->
      <g transform="translate(18, 18)">
        <rect width="20" height="14" rx="3" fill="none" stroke="#FFFFFF" stroke-width="2"/>
        <circle cx="10" cy="7" r="3" stroke="#FFFFFF" stroke-width="2"/>
      </g>
      <text x="46" y="33" fill="#FFFFFF" font-family="'Inter', sans-serif" font-size="14" font-weight="800">Commissions</text>
    </g>
  </g>
</svg>
