<svg width="390" height="844" viewBox="0 0 390 844" fill="none" xmlns="http://www.w3.org/2000/svg">
  <!-- Background -->
  <rect width="390" height="844" rx="40" fill="#F8FAFC" stroke="#E2E8F0" stroke-width="3"/>

  <!-- Status Bar -->
  <text x="32" y="32" fill="#0F172A" font-family="System-UI, -apple-system, sans-serif" font-size="14" font-weight="600" letter-spacing="-0.2">9:41</text>
  <path d="M328 22H338C339.105 22 340 22.8954 340 24V30C340 31.1046 339.105 32 338 32H328C326.895 32 326 31.1046 326 30V24C326 22.8954 326.895 22 328 22Z" stroke="#0F172A" stroke-width="1.5"/>
  <rect x="328" y="24" width="8" height="6" rx="1" fill="#0F172A"/>

  <!-- Header -->
  <g transform="translate(24, 55)">
    <text x="0" y="22" fill="#1A365D" font-family="'Outfit', 'Inter', sans-serif" font-size="22" font-weight="900" letter-spacing="-0.5">Admin Console</text>
    <rect x="0" y="32" width="168" height="20" rx="6" fill="#ECFDF5" stroke="#10B981" stroke-width="1"/>
    <text x="84" y="45" text-anchor="middle" fill="#059669" font-family="'Inter', sans-serif" font-size="10" font-weight="800">● SYS ACTIVE  Superuser Authority</text>
  </g>

  <!-- Navigation tab indicator (Canteens active) -->
  <g transform="translate(24, 125)">
    <rect width="342" height="42" rx="12" fill="#F1F5F9" stroke="#E2E8F0" stroke-width="1"/>
    
    <!-- Active Canteens Tab pill in Navy -->
    <rect x="114" y="4" width="114" height="34" rx="8" fill="#1A365D"/>
    
    <a href="admin_dashboard.svg" style="cursor: pointer;">
      <text x="58" y="25" text-anchor="middle" fill="#64748B" font-family="'Inter', sans-serif" font-size="12" font-weight="700">Approvals</text>
    </a>
    <text x="171" y="25" text-anchor="middle" fill="#FFFFFF" font-family="'Inter', sans-serif" font-size="12" font-weight="800">Canteens</text>
    <a href="admin_commissions.svg" style="cursor: pointer;">
      <text x="284" y="25" text-anchor="middle" fill="#64748B" font-family="'Inter', sans-serif" font-size="12" font-weight="700">Commissions</text>
    </a>
  </g>

  <!-- Canteens active listing -->
  <g transform="translate(24, 195)">
    <!-- Stall 1 -->
    <g transform="translate(0, 0)">
      <rect width="342" height="86" rx="18" fill="#FFFFFF" stroke="#F1F5F9" stroke-width="1.5"/>
      <g transform="translate(12, 12)">
        <rect width="62" height="62" rx="10" fill="#FEF3C7"/>
        <path d="M14 42C14 50 20 52 31 52C42 52 48 50 48 42H14Z" fill="#D97706"/>
        <circle cx="31" cy="30" r="10" fill="#FFFFFF"/>
        <circle cx="31" cy="30" r="6" fill="#FBBF24"/>
      </g>
      <text x="86" y="32" fill="#0F172A" font-family="'Inter', sans-serif" font-size="14" font-weight="800">Maria's Homestyle Meals</text>
      <!-- Active pill -->
      <rect x="86" y="42" width="54" height="18" rx="4" fill="#ECFDF5" stroke="#10B981" stroke-width="1"/>
      <text x="113" y="54" text-anchor="middle" fill="#059669" font-family="'Inter', sans-serif" font-size="9" font-weight="800">ACTIVE</text>
      
      <!-- Suspend button -->
      <g transform="translate(246, 26)">
        <rect width="80" height="34" rx="10" fill="#FEF2F2" stroke="#EF4444" stroke-width="1.5"/>
        <text x="40" y="21" text-anchor="middle" fill="#EF4444" font-family="'Inter', sans-serif" font-size="11" font-weight="800">Suspend</text>
      </g>
    </g>

    <!-- Stall 2 -->
    <g transform="translate(0, 98)">
      <rect width="342" height="86" rx="18" fill="#FFFFFF" stroke="#F1F5F9" stroke-width="1.5"/>
      <g transform="translate(12, 12)">
        <rect width="62" height="62" rx="10" fill="#FFEDD5"/>
        <rect x="18" y="22" width="26" height="16" rx="4" fill="#EA580C"/>
        <circle cx="31" cy="46" r="6" fill="#1E293B"/>
      </g>
      <text x="86" y="32" fill="#0F172A" font-family="'Inter', sans-serif" font-size="14" font-weight="800">Wok &amp; Roll Express</text>
      <!-- Active pill -->
      <rect x="86" y="42" width="54" height="18" rx="4" fill="#ECFDF5" stroke="#10B981" stroke-width="1"/>
      <text x="113" y="54" text-anchor="middle" fill="#059669" font-family="'Inter', sans-serif" font-size="9" font-weight="800">ACTIVE</text>
      
      <!-- Suspend button -->
      <g transform="translate(246, 26)">
        <rect width="80" height="34" rx="10" fill="#FEF2F2" stroke="#EF4444" stroke-width="1.5"/>
        <text x="40" y="21" text-anchor="middle" fill="#EF4444" font-family="'Inter', sans-serif" font-size="11" font-weight="800">Suspend</text>
      </g>
    </g>

    <!-- Stall 3 -->
    <g transform="translate(0, 196)">
      <rect width="342" height="86" rx="18" fill="#FFFFFF" stroke="#F1F5F9" stroke-width="1.5"/>
      <g transform="translate(12, 12)">
        <rect width="62" height="62" rx="10" fill="#E0F2FE"/>
        <!-- Green Fork illustration -->
        <rect x="28" y="16" width="6" height="24" rx="2" fill="#0284C7"/>
        <path d="M23 20H39" stroke="#0284C7" stroke-width="2.5" stroke-linecap="round"/>
      </g>
      <text x="86" y="32" fill="#0F172A" font-family="'Inter', sans-serif" font-size="14" font-weight="800">The Green Fork (Salads)</text>
      <!-- Active pill -->
      <rect x="86" y="42" width="54" height="18" rx="4" fill="#ECFDF5" stroke="#10B981" stroke-width="1"/>
      <text x="113" y="54" text-anchor="middle" fill="#059669" font-family="'Inter', sans-serif" font-size="9" font-weight="800">ACTIVE</text>
      
      <!-- Suspend button -->
      <g transform="translate(246, 26)">
        <rect width="80" height="34" rx="10" fill="#FEF2F2" stroke="#EF4444" stroke-width="1.5"/>
        <text x="40" y="21" text-anchor="middle" fill="#EF4444" font-family="'Inter', sans-serif" font-size="11" font-weight="800">Suspend</text>
      </g>
    </g>
  </g>

  <!-- Bottom Navigation Bar (Canteens active in Navy pill layout) -->
  <g transform="translate(0, 785)">
    <!-- Thin line separator -->
    <line x1="0" y1="0" x2="390" y2="0" stroke="#E2E8F0" stroke-width="1.5"/>

    <!-- Tab 1: Approvals Icon (Inactive) -->
    <a href="admin_dashboard.svg" style="cursor: pointer;">
      <g transform="translate(48, 24)">
        <rect width="20" height="20" rx="4" fill="none" stroke="#64748B" stroke-width="2"/>
        <path d="M6 10L9 13L14 7" stroke="#64748B" stroke-width="2" stroke-linecap="round"/>
      </g>
    </a>

    <!-- Tab 2: Canteens (Active Pill Layout) -->
    <g transform="translate(126, 10)">
      <rect width="132" height="56" rx="28" fill="#1A365D"/>
      <!-- Storefront icon -->
      <g transform="translate(18, 18)">
        <path d="M0 11H16M1 5L3 0H13L15 5V11M2 17V11M14 17V11" stroke="#FFFFFF" stroke-width="2" stroke-linecap="round" stroke-linejoin="round"/>
      </g>
      <text x="48" y="33" fill="#FFFFFF" font-family="'Inter', sans-serif" font-size="14" font-weight="800">Canteens</text>
    </g>

    <!-- Tab 3: Commissions Icon (Inactive) -->
    <a href="admin_commissions.svg" style="cursor: pointer;">
      <g transform="translate(300, 24)">
        <rect width="20" height="14" rx="3" fill="none" stroke="#64748B" stroke-width="2"/>
        <circle cx="10" cy="7" r="3" stroke="#64748B" stroke-width="2"/>
      </g>
    </a>
  </g>
</svg>
